<svg width="28" height="29" viewBox="0 0 28 29" fill="none" xmlns="http://www.w3.org/2000/svg">
<path d="M15.2049 0.424316V2.35275C17.1123 2.35275 18.8992 2.83486 20.5657 3.79908C22.1518 4.74321 23.4167 6.00875 24.3603 7.59569C25.3241 9.26299 25.8059 11.0508 25.8059 12.9592H27.7334C27.7334 10.6892 27.1612 8.58 26.0168 6.63147C24.9125 4.74321 23.4167 3.24666 21.5294 2.14183C19.5819 0.996821 17.4737 0.424316 15.2049 0.424316ZM5.23636 3.31697C4.69426 3.31697 4.22243 3.48772 3.82088 3.82921L0.718878 6.99305L0.809227 6.93279C0.307285 7.35464 -0.0239962 7.87692 -0.184618 8.49965C-0.325161 9.12237 -0.285006 9.72501 -0.0641516 10.3076C0.498023 11.8744 1.25094 13.4814 2.19459 15.1286C3.51971 17.3986 5.09581 19.4375 6.92288 21.2454C9.85422 24.1983 13.4983 26.5285 17.8552 28.236H17.8853C18.4675 28.4369 19.0498 28.477 19.6321 28.3565C20.2344 28.236 20.7664 27.9748 21.2282 27.5731L24.27 24.5298C24.6716 24.128 24.8723 23.6359 24.8723 23.0533C24.8723 22.4507 24.6716 21.9485 24.27 21.5467L20.3247 17.5693C19.9232 17.1676 19.4212 16.9667 18.8189 16.9667C18.2166 16.9667 17.7146 17.1676 17.3131 17.5693L15.4157 19.4978C13.8898 18.7746 12.5647 17.8807 11.4404 16.816C10.316 15.7313 9.42255 14.4155 8.75999 12.8688L10.6874 10.9403C11.1091 10.4984 11.3199 9.97611 11.3199 9.37347C11.3199 8.75074 11.079 8.24855 10.5971 7.86688L10.6874 7.95727L6.65183 3.82921C6.25028 3.48772 5.77845 3.31697 5.23636 3.31697ZM15.2049 4.28119V6.20963C16.4297 6.20963 17.554 6.51095 18.578 7.11358C19.622 7.71622 20.4452 8.53982 21.0475 9.58439C21.6499 10.6089 21.951 11.7338 21.951 12.9592H23.8785C23.8785 11.3923 23.487 9.93593 22.7039 8.59004C21.9209 7.28433 20.8769 6.23976 19.5718 5.45633C18.2266 4.6729 16.771 4.28119 15.2049 4.28119ZM5.23636 5.24541C5.29659 5.24541 5.36686 5.27554 5.44717 5.3358L9.39244 9.37347C9.41251 9.45382 9.39244 9.52413 9.3322 9.58439L6.47113 12.4168L6.68195 13.0194L7.07346 13.8631C7.39471 14.5461 7.76614 15.209 8.18778 15.8518C8.77003 16.7558 9.41251 17.5292 10.1152 18.172C11.0589 19.096 12.1933 19.9397 13.5184 20.703C14.181 21.0847 14.7431 21.3659 15.2049 21.5467L15.8073 21.8179L18.7286 18.8951C18.7687 18.8549 18.7988 18.8349 18.8189 18.8349C18.839 18.8349 18.8691 18.8549 18.9093 18.8951L22.975 22.9629C23.0151 23.0031 23.0352 23.0332 23.0352 23.0533C23.0352 23.0533 23.0151 23.0734 22.975 23.1136L19.9633 26.0966C19.5216 26.4783 19.0398 26.5787 18.5177 26.398C14.4219 24.811 11.0087 22.6415 8.27812 19.8895C6.5916 18.2021 5.11589 16.2837 3.851 14.1343C2.9475 12.5875 2.24478 11.091 1.74284 9.64466V9.61452C1.66253 9.43373 1.65249 9.22281 1.71272 8.98176C1.77296 8.72061 1.88338 8.51973 2.044 8.37912L5.02554 5.3358C5.08577 5.27554 5.15605 5.24541 5.23636 5.24541ZM15.2049 8.13806V10.0665C16.008 10.0665 16.6907 10.3477 17.2528 10.9102C17.815 11.4727 18.0961 12.1556 18.0961 12.9592H20.0236C20.0236 12.0954 19.8027 11.2919 19.361 10.5486C18.9394 9.80536 18.3571 9.22281 17.6142 8.80096C16.8714 8.35903 16.0683 8.13806 15.2049 8.13806Z" fill="black"/>
</svg>
