<svg width="73" height="72" viewBox="0 0 73 72" fill="none" xmlns="http://www.w3.org/2000/svg">
<path d="M25.7006 47.9995C25.7006 46.796 25.6898 45.6764 25.704 44.5572C25.7154 43.6639 26.1564 43.2001 27.0359 43.1989C33.3344 43.1905 39.633 43.1911 45.9313 43.1981C46.8226 43.1991 47.2772 43.6513 47.2908 44.53C47.3081 45.6491 47.295 46.7687 47.295 47.9406C49.97 47.9406 52.7776 47.9406 55.6878 47.9406C55.6878 47.0191 55.7132 46.0796 55.6667 45.1434C55.6573 44.9526 55.4027 44.7443 55.2193 44.5961C53.5868 43.2772 51.9404 41.9753 50.3075 40.6573C49.6013 40.0872 49.502 39.3402 50.0267 38.7804C50.4599 38.3183 51.0958 38.2432 51.651 38.68C53.6539 40.2557 55.6515 41.8393 57.6099 43.4692C57.8875 43.7002 58.0501 44.1983 58.0715 44.5834C58.1326 45.6782 58.093 46.7787 58.093 47.946C58.3319 47.9626 58.5456 47.9901 58.7591 47.9905C61.2585 47.9935 63.758 47.9973 66.2574 47.9909C68.4817 47.9851 70.1054 46.4385 70.088 44.3563C70.071 42.3124 68.4513 40.8037 66.259 40.7961C64.8594 40.7912 63.4596 40.7983 62.06 40.7941C60.8907 40.7906 60.494 40.3923 60.4938 39.212C60.4922 28.8661 60.4928 18.5202 60.4928 8.17435C60.4928 7.87993 60.4928 7.58552 60.4928 7.24964C59.6924 7.24964 58.9522 7.24964 58.0934 7.24964C58.0934 7.52042 58.0934 7.80743 58.0934 8.09444C58.0934 17.1409 58.0934 26.1873 58.0934 35.2336C58.0934 35.4334 58.0982 35.6335 58.092 35.8332C58.0665 36.6594 57.6071 37.1827 56.9045 37.1901C56.2001 37.1975 55.7076 36.674 55.6982 35.8566C55.6831 34.5574 55.694 33.2578 55.6938 31.9583C55.6938 31.7374 55.6938 31.5163 55.6938 31.1986C55.3811 31.1986 55.1163 31.1986 54.8516 31.1986C50.9026 31.1986 46.9534 31.1992 43.0044 31.1982C41.6628 31.1978 41.2975 30.8421 41.2973 29.5311C41.2961 23.4334 41.2961 17.336 41.2975 11.2383C41.2979 9.97471 41.6743 9.60739 42.9635 9.60699C46.9125 9.60558 50.8617 9.60659 54.8107 9.60659C55.0793 9.60659 55.3481 9.60659 55.6547 9.60659C55.6547 8.79984 55.6547 8.05979 55.6547 7.26326C49.3037 7.26326 42.9473 7.26326 36.4977 7.26326C36.4977 7.52463 36.4977 7.79001 36.4977 8.05518C36.4977 13.6031 36.4983 19.1507 36.4973 24.6986C36.4971 26.0341 36.1378 26.3982 34.8229 26.3998C33.3733 26.4016 31.9228 26.3736 30.4746 26.4212C30.1621 26.4315 29.7628 26.6326 29.5673 26.8769C28.6314 28.0468 27.7551 29.2643 26.8508 30.4598C26.266 31.2331 25.6153 31.4043 25.0034 30.9625C24.3689 30.5044 24.3481 29.8167 24.9571 28.9999C26.0024 27.5981 27.0737 26.2152 28.0932 24.7951C28.5184 24.2027 29.0273 23.9726 29.7441 23.9906C31.1635 24.0261 32.5846 24.001 34.0512 24.001C34.0512 18.3929 34.0512 12.8374 34.0512 7.24443C33.2874 7.24443 32.5471 7.24443 31.6985 7.24443C31.6985 8.25527 31.6657 9.27011 31.7083 10.2819C31.7466 11.1912 31.4958 11.8572 30.496 12.0563C30.496 12.887 30.5114 13.6858 30.4932 14.4839C30.4325 17.1331 28.2905 19.2176 25.6601 19.2004C23.0691 19.1834 20.9621 17.0976 20.9058 14.4807C20.8886 13.6826 20.9032 12.8838 20.9032 12.0567C19.9002 11.8564 19.652 11.1892 19.6915 10.2801C19.7345 9.28713 19.7013 8.29092 19.7013 7.25204C18.9063 7.25204 18.1663 7.25204 17.3636 7.25204C17.3636 12.7855 17.3636 18.341 17.3636 24.001C18.5799 24.001 19.8188 24.0008 21.0578 24.0012C21.4077 24.0014 21.7588 23.9848 22.1073 24.0084C22.8179 24.0567 23.299 24.5546 23.2942 25.2085C23.2894 25.8603 22.8049 26.3758 22.0905 26.3896C20.6913 26.4168 19.2913 26.3992 17.8917 26.4002C17.7215 26.4004 17.5514 26.4002 17.3433 26.4002C17.3433 28.4023 17.3433 30.3418 17.3433 32.3979C18.3656 32.3979 19.4033 32.3965 20.4409 32.3983C21.7233 32.4005 22.0989 32.7701 22.1003 34.0381C22.1025 36.1871 22.1049 38.3364 22.0993 40.4854C22.0965 41.5659 21.6787 41.9857 20.6084 41.9928C19.5378 41.9998 18.4671 41.9944 17.3495 41.9944C17.3495 44.0022 17.3495 45.9592 17.3495 47.9927C18.088 47.9927 18.8062 47.9833 19.524 47.9951C20.3568 48.0087 20.8787 48.4633 20.8948 49.1653C20.9114 49.892 20.369 50.3869 19.5006 50.3881C15.1266 50.3937 10.7524 50.4209 6.37877 50.3775C3.13897 50.3452 0.522257 47.7151 0.516649 44.4673C0.494417 31.6224 0.494417 18.7774 0.516849 5.93257C0.522657 2.68336 3.14238 0.0828676 6.37897 0.0183761C7.953 -0.0128682 9.52824 0.00295429 11.1027 0.0133691C12.0416 0.0195779 12.4979 0.458601 12.4989 1.38492C12.5059 8.05719 12.5051 14.7297 12.4997 21.4019C12.4991 22.2694 12.0022 22.8125 11.2759 22.7955C10.5545 22.7785 10.1063 22.2409 10.1057 21.3489C10.1017 15.3762 10.1035 9.4037 10.1035 3.43102C10.1035 3.13159 10.1035 2.83217 10.1035 2.33026C8.49718 2.42059 6.8907 2.34908 5.35412 2.6435C3.84137 2.93311 2.91185 4.45688 2.90824 6.10742C2.89943 10.1059 2.90524 14.1042 2.90504 18.1026C2.90504 24.95 2.90504 31.7973 2.90504 38.6444C2.90504 38.9098 2.90504 39.175 2.90504 39.6054C5.13801 37.8925 7.64356 38.5461 10.1035 38.361C10.1035 38.0742 10.1035 37.8084 10.1035 37.5426C10.1035 33.994 10.1031 30.4454 10.1043 26.8969C10.1043 26.6722 10.0822 26.4407 10.1271 26.2242C10.2603 25.5807 10.6675 25.2039 11.331 25.2155C11.9587 25.2264 12.3422 25.6007 12.477 26.2065C12.5197 26.3982 12.5023 26.6045 12.5023 26.8042C12.5035 30.9276 12.5043 35.0509 12.5025 39.1744C12.5019 40.4041 12.1163 40.7918 10.8976 40.7945C9.47296 40.7977 8.04814 40.787 6.62352 40.7973C4.50892 40.8125 2.90684 42.3695 2.90744 44.3938C2.90804 46.4178 4.50872 47.9795 6.62492 47.9893C9.34718 48.0019 12.0694 47.9923 14.9027 47.9923C14.9027 47.671 14.9027 47.383 14.9027 47.0952C14.9027 33.6006 14.9027 20.1059 14.9029 6.61133C14.9029 5.12803 15.2209 4.80877 16.6984 4.80857C30.9701 4.80837 45.2417 4.80837 59.5132 4.80837C59.8088 4.80837 60.1044 4.80837 60.4932 4.80837C60.4932 3.69279 60.4898 2.62748 60.4942 1.56237C60.4988 0.427357 60.9003 0.00055087 62.0145 0.0147711C63.886 0.0388052 65.7801 -0.0777603 67.6229 0.172595C70.4006 0.549931 72.4429 3.02144 72.4744 5.82982C72.5192 9.8277 72.4928 13.8266 72.4868 17.8249C72.4856 18.6542 72.0157 19.1802 71.3169 19.1968C70.5911 19.214 70.096 18.6707 70.0944 17.8036C70.0874 14.0052 70.0928 10.2066 70.0906 6.40825C70.089 3.85582 68.6455 2.41237 66.0977 2.40957C65.0544 2.40837 64.0112 2.40937 62.9308 2.40937C62.9308 14.4144 62.9308 26.35 62.9308 38.3544C65.308 38.5697 67.8476 37.8731 70.0912 39.6096C70.0912 39.1758 70.0912 38.9108 70.0912 38.6456C70.0912 33.5476 70.091 28.4497 70.0916 23.3517C70.0916 23.1268 70.0706 22.8974 70.1066 22.6781C70.2134 22.029 70.6035 21.6511 71.2657 21.6128C71.8859 21.577 72.3999 22.0496 72.4778 22.7032C72.5042 22.9253 72.4902 23.1524 72.4902 23.3773C72.4906 30.2246 72.4918 37.072 72.49 43.9191C72.489 47.8757 69.983 50.3909 66.0398 50.3913C52.3937 50.3927 38.7473 50.3919 25.1011 50.3915C24.8762 50.3915 24.6495 50.4047 24.4268 50.3809C23.7638 50.31 23.307 49.8167 23.307 49.1918C23.3068 48.5655 23.7618 48.0586 24.4262 48.0069C24.8922 47.9702 25.3635 47.9995 25.7006 47.9995ZM43.75 16.8364C43.75 20.8521 43.75 24.8064 43.75 28.7389C47.7589 28.7389 51.7139 28.7389 55.6535 28.7389C55.6535 24.7421 55.6535 20.8053 55.6535 16.8364C51.6761 16.8364 47.7389 16.8364 43.75 16.8364ZM28.1232 45.6173C28.1132 45.8358 28.1022 45.9826 28.1004 46.1294C28.081 47.658 28.4046 47.9917 29.9072 47.9921C31.6292 47.9925 33.3513 47.9923 35.0733 47.9923C37.8685 47.9923 40.6638 47.9965 43.459 47.9897C44.3805 47.9875 44.8494 47.5681 44.891 46.7307C44.9091 46.368 44.894 46.0034 44.894 45.6175C39.2654 45.6173 33.7324 45.6173 28.1232 45.6173ZM43.7594 12.0196C43.7594 12.8003 43.7594 13.5746 43.7594 14.3543C47.7417 14.3543 51.6953 14.3543 55.6351 14.3543C55.6351 13.5456 55.6351 12.7881 55.6351 12.0196C51.658 12.0196 47.7403 12.0196 43.7594 12.0196ZM23.3008 12.0324C23.3008 12.6082 23.3 13.1048 23.301 13.6013C23.3016 13.9257 23.2864 14.2514 23.3102 14.574C23.3977 15.7639 24.3737 16.7261 25.5504 16.7978C26.7597 16.8715 27.9165 16.0073 28.0507 14.7955C28.1505 13.8933 28.0704 12.971 28.0704 12.0322C26.4693 12.0324 24.9313 12.0324 23.3008 12.0324ZM29.2628 7.25685C26.8554 7.25685 24.5011 7.25685 22.1588 7.25685C22.1588 8.0646 22.1588 8.82167 22.1588 9.56973C24.5536 9.56973 26.8901 9.56973 29.2628 9.56973C29.2628 8.79543 29.2628 8.05639 29.2628 7.25685ZM19.648 39.5625C19.648 37.9444 19.648 36.3898 19.648 34.8582C18.8365 34.8582 18.0792 34.8582 17.3421 34.8582C17.3421 36.4567 17.3421 37.9937 17.3421 39.5625C18.1204 39.5625 18.8593 39.5625 19.648 39.5625Z" fill="#5F3819"/>
<path d="M62.8625 69.5841C62.8625 67.957 62.8625 66.4176 62.8625 64.832C62.0803 64.832 61.3225 64.832 60.5153 64.832C60.4206 65.8009 60.7967 67.075 59.2399 67.1643C58.4334 67.2106 58.1904 66.6802 58.0522 64.838C57.299 64.838 56.5403 64.838 55.7291 64.838C55.6021 65.7919 56.0147 67.129 54.387 67.1595C53.5873 67.1743 53.3578 66.6365 53.2664 64.8456C52.5144 64.8456 51.7559 64.8456 50.9267 64.8456C50.7993 65.7695 51.2167 67.2065 49.6104 67.1374C48.1872 67.0762 48.572 65.7657 48.466 64.8266C47.6941 64.8266 46.9537 64.8266 46.0923 64.8266C46.0923 65.1995 46.1113 65.5878 46.088 65.9734C46.045 66.6874 45.5559 67.1729 44.9052 67.1791C44.2522 67.1851 43.7507 66.7034 43.7039 65.994C43.6794 65.6241 43.6995 65.2514 43.6995 64.8336C42.8911 64.8336 42.1326 64.8336 41.3205 64.8336C41.2211 65.7925 41.6049 67.0703 40.0507 67.1647C39.2345 67.2142 38.981 66.6664 38.8616 64.8406C38.1083 64.8406 37.3494 64.8406 36.5405 64.8406C36.3967 65.7579 36.8185 67.1593 35.2735 67.14C33.7864 67.1216 34.1773 65.7739 34.072 64.8222C33.2867 64.8222 32.5462 64.8222 31.7269 64.8222C31.6091 65.7663 32.0193 67.2009 30.4212 67.1374C29 67.081 29.3627 65.7793 29.2822 64.829C28.4837 64.829 27.7252 64.829 26.9707 64.829C26.7079 66.7902 26.4614 67.221 25.641 67.1791C24.8415 67.1382 24.6112 66.6916 24.4539 64.836C23.7003 64.836 22.9418 64.836 22.1258 64.836C22.0201 65.7829 22.4148 67.0663 20.8614 67.1651C20.0345 67.2176 19.7719 66.6562 19.6712 64.843C18.9179 64.843 18.1586 64.843 17.3456 64.843C17.196 65.7487 17.6278 67.1559 16.0843 67.14C14.599 67.1248 14.9669 65.7883 14.884 64.8248C14.0958 64.8248 13.3556 64.8248 12.5306 64.8248C12.409 65.7575 12.83 67.1965 11.2318 67.1388C9.80154 67.0872 10.1777 65.7805 10.0731 64.8316C9.29302 64.8316 8.53434 64.8316 7.7266 64.8316C7.63166 65.8015 8.00779 67.0754 6.45098 67.1649C5.64444 67.2111 5.4013 66.6808 5.2633 64.8386C4.51003 64.8386 3.75135 64.8386 2.94801 64.8386C2.94801 66.3834 2.94801 67.9232 2.94801 69.5847C3.21339 69.5847 3.5 69.5847 3.7864 69.5847C15.6827 69.5847 27.579 69.5847 39.4753 69.5847C40.7226 69.5847 41.2752 69.9442 41.2896 70.7638C41.3045 71.5978 40.7196 71.9837 39.4398 71.9837C27.0686 71.9837 14.6975 71.9839 2.32633 71.9837C0.807976 71.9837 0.504945 71.6751 0.504745 70.1307C0.504545 68.0816 0.502542 66.0327 0.505546 63.9836C0.507349 62.7927 0.896501 62.3885 2.05675 62.3885C22.6253 62.3869 43.1939 62.3869 63.7625 62.3887C64.8819 62.3887 65.2875 62.8021 65.2897 63.9337C65.2941 66.1076 65.2945 68.2817 65.2895 70.4556C65.2869 71.5727 64.8731 71.9819 63.7431 71.9825C57.5699 71.9851 51.397 71.9849 45.2238 71.9825C44.2655 71.9821 43.7199 71.5545 43.7015 70.8121C43.6824 70.0402 44.2438 69.5861 45.2414 69.5857C50.7897 69.5835 56.338 69.5845 61.8863 69.5845C62.1847 69.5841 62.4829 69.5841 62.8625 69.5841Z" fill="#5F3819"/>
<path d="M53.2604 57.5891C53.2604 56.7481 53.2604 56.0083 53.2604 55.2294C45.6907 55.2294 38.154 55.2294 30.5578 55.2294C30.5578 55.9718 30.5578 56.7299 30.5578 57.5887C30.8076 57.5887 31.0719 57.5887 31.3363 57.5887C35.734 57.5887 40.1316 57.5801 44.529 57.6035C44.9254 57.6055 45.4271 57.7051 45.6859 57.9578C45.9374 58.2036 46.1099 58.7604 46.0057 59.0788C45.8896 59.4341 45.4514 59.7197 45.0963 59.9461C44.9154 60.0614 44.6094 59.9869 44.3598 59.9869C39.5123 59.9883 34.665 59.9955 29.8178 59.9763C29.3325 59.9743 28.8248 59.8742 28.3667 59.7099C26.2305 58.944 24.1111 58.1317 21.9788 57.3542C21.365 57.1305 20.8903 56.8092 20.9087 56.0918C20.9281 55.3357 21.4475 55.0507 22.1038 54.8627C24.0696 54.2993 26.0178 53.6728 27.9908 53.1364C28.7488 52.9303 29.555 52.8065 30.3395 52.8049C40.7088 52.7835 51.0783 52.7889 61.4477 52.7921C63.6486 52.7927 65.2647 54.2934 65.2885 56.3377C65.3111 58.2775 63.79 59.9505 61.8482 59.9709C57.8259 60.0136 53.8026 59.9917 49.7799 59.9807C49.0092 59.9787 48.5073 59.479 48.5011 58.798C48.4947 58.0904 49.0134 57.6039 49.8336 57.5927C50.954 57.5777 52.0748 57.5891 53.2604 57.5891ZM58.0566 55.2398C57.2489 55.2398 56.4932 55.2398 55.75 55.2398C55.75 56.0471 55.75 56.8032 55.75 57.5517C56.5455 57.5517 57.2838 57.5517 58.0566 57.5517C58.0566 56.7776 58.0566 56.0393 58.0566 55.2398ZM60.5308 57.5679C61.3111 57.5519 62.1725 57.8573 62.6448 57.0363C62.8364 56.7031 62.8378 56.0774 62.6474 55.7435C62.1773 54.9185 61.3137 55.2282 60.5308 55.2095C60.5308 56.0101 60.5308 56.765 60.5308 57.5679ZM28.0741 55.5917C27.3671 55.8158 26.7608 56.0079 25.9497 56.2648C26.7941 56.5713 27.4089 56.7944 28.0741 57.0357C28.0741 56.5282 28.0741 56.1134 28.0741 55.5917Z" fill="#5F3819"/>
<path d="M41.2945 36.0188C41.2796 38.6686 39.11 40.8088 36.4536 40.7936C33.8138 40.7786 31.6746 38.5921 31.6994 35.9343C31.7239 33.3226 33.8823 31.1942 36.5014 31.199C39.155 31.2038 41.3093 33.3701 41.2945 36.0188ZM38.8924 36.0238C38.9071 34.7174 37.8464 33.6232 36.5433 33.6004C35.2036 33.577 34.1008 34.6635 34.1012 36.0062C34.1016 37.3034 35.1902 38.392 36.4874 38.3924C37.7987 38.3928 38.8778 37.3301 38.8924 36.0238Z" fill="#5F3819"/>
</svg>
