<svg width="73" height="72" viewBox="0 0 73 72" fill="none" xmlns="http://www.w3.org/2000/svg">
<path d="M72.4999 9.10763C72.2016 9.3866 71.9492 9.78228 71.5957 9.9215C70.7168 10.268 69.9389 9.62074 69.9208 8.54935C69.8929 6.88857 69.912 5.22709 69.9113 3.56578C69.9112 3.31353 69.9113 3.06129 69.9113 2.76175C47.6734 2.76175 25.5106 2.76175 3.28797 2.76175C3.28797 24.952 3.28797 47.1369 3.28797 69.3663C17.685 69.3663 32.0563 69.3663 46.4674 69.3663C46.4674 68.4212 46.4674 67.5196 46.4674 66.5385C46.2166 66.5248 45.9708 66.5002 45.7251 66.4997C43.7368 66.4965 41.7486 66.5016 39.7601 66.4965C38.4527 66.493 37.9949 66.0307 37.9939 64.7115C37.9905 60.9445 37.9926 57.1775 37.9926 53.4105C37.9926 53.1582 37.9926 52.906 37.9926 52.6061C37.029 52.6061 36.132 52.6061 35.1471 52.6061C35.1471 52.9005 35.1471 53.1741 35.1471 53.4476C35.1471 57.1678 35.148 60.8879 35.1466 64.6081C35.146 66.0769 34.7303 66.4972 33.2724 66.4976C24.828 66.4986 16.3835 66.4988 7.93914 66.4974C6.52832 66.4972 6.1068 66.0704 6.10662 64.6526C6.10592 57.3526 6.10574 50.0525 6.1068 42.7525C6.10697 41.3589 6.50529 40.9627 7.90504 40.9625C19.3437 40.9617 30.7823 40.962 42.2209 40.962C42.4998 40.962 42.779 40.962 43.12 40.962C43.12 40.0128 43.12 39.0938 43.12 38.0818C42.8291 38.0818 42.5317 38.0818 42.2342 38.0818C33.8133 38.0818 25.3921 38.0822 16.9711 38.0801C16.6677 38.0801 16.361 38.0801 16.0618 38.0375C15.4295 37.9475 14.9936 37.4687 14.9586 36.8651C14.9222 36.2377 15.3404 35.6787 15.9829 35.5432C16.2311 35.4908 16.4942 35.4971 16.7507 35.4971C25.8266 35.495 34.9028 35.495 43.9787 35.4959C45.351 35.4961 45.7913 35.9296 45.7956 37.2901C45.8001 38.7876 45.8012 40.2851 45.7952 41.7824C45.7899 43.1004 45.3487 43.5377 44.0172 43.5379C32.5786 43.5398 21.14 43.539 9.70135 43.539C9.40094 43.539 9.10035 43.539 8.74123 43.539C8.74123 44.703 8.74123 45.8099 8.74123 47.0094C9.81226 47.0094 10.8801 47.0395 11.9455 47.002C13.3836 46.9514 14.6315 47.3093 15.57 48.5596C17.01 47.8395 18.5344 47.5456 20.1169 47.7173C20.8533 47.7973 21.5907 47.9725 22.2962 48.201C23.0955 48.46 23.4295 49.1459 23.2105 49.8507C23.0087 50.5001 22.3513 50.8603 21.5687 50.6535C20.475 50.3647 19.3904 50.1086 18.2549 50.3733C18.1411 50.3999 18.0249 50.4161 17.9119 50.4449C16.3454 50.8443 16.2142 51.0109 16.2142 52.597C16.2142 53.8136 16.1966 55.0308 16.2299 56.2465C16.2362 56.4772 16.3833 56.7938 16.5679 56.9156C18.3978 58.1248 21.3771 57.8411 22.9732 56.3376C24.1214 55.256 24.3701 54.04 23.7412 52.5833C23.6949 52.476 23.647 52.3693 23.6063 52.26C23.327 51.5077 23.5587 50.8318 24.1975 50.5298C24.8458 50.2232 25.496 50.4584 25.9193 51.1522C27.1626 53.1902 26.8669 55.957 25.2172 57.7235C22.9519 60.1489 19.3419 60.9329 16.2654 59.6674C16.0497 59.5787 15.834 59.4901 15.5677 59.3805C14.584 60.7455 13.1567 60.9925 11.5905 60.9218C10.6581 60.8798 9.72244 60.9141 8.73525 60.9141C8.73525 61.8986 8.73525 62.8429 8.73525 63.8324C16.6479 63.8324 24.5412 63.8324 32.5309 63.8324C32.5309 63.5501 32.5309 63.279 32.5309 63.008C32.5309 59.2877 32.5299 55.5677 32.5315 51.8474C32.5322 50.374 32.9419 49.9627 34.4011 49.9617C35.8514 49.9606 37.3016 49.9604 38.752 49.9617C40.1679 49.9629 40.6063 50.3913 40.6074 51.7912C40.6102 55.5114 40.6084 59.2315 40.6084 62.9517C40.6084 63.2284 40.6084 63.5051 40.6084 63.8769C40.9108 63.8769 41.1588 63.8769 41.4068 63.8769C43.3951 63.8769 45.3835 63.8723 47.3718 63.8786C48.607 63.8827 49.0749 64.3469 49.0793 65.5645C49.085 67.1555 49.0575 68.7471 49.0904 70.3373C49.1069 71.1377 48.8195 71.6912 48.0786 71.9999C32.5932 71.9999 17.1077 71.9999 1.62227 71.9999C0.857442 71.6603 0.630508 71.054 0.63086 70.2459C0.64211 47.4612 0.639825 24.6761 0.640528 1.89111C0.640528 0.562554 1.07875 0.123628 2.40555 0.123628C25.185 0.122749 47.9647 0.12521 70.7442 0.114136C71.5521 0.113785 72.161 0.33773 72.4999 1.10572C72.4999 3.77285 72.4999 6.44015 72.4999 9.10763ZM8.68463 49.6458C8.68463 52.4472 8.67953 55.1992 8.70062 57.9513C8.70168 58.0791 8.93476 58.3125 9.06344 58.315C10.2547 58.3387 11.4477 58.3471 12.6385 58.3071C13.23 58.2872 13.5947 57.9159 13.5977 57.3079C13.609 55.0637 13.6069 52.8195 13.5912 50.5753C13.5877 50.0763 13.3126 49.6753 12.8021 49.6597C11.4567 49.6184 10.1092 49.6458 8.68463 49.6458Z" fill="#5F3819"/>
<path d="M57.9042 72.0001C57.1501 71.6462 56.9137 71.028 56.9271 70.2299C56.9525 68.7096 56.9318 67.1886 56.9351 65.6677C56.938 64.3529 57.3996 63.8823 58.6977 63.8783C60.3351 63.8732 61.9723 63.877 63.6097 63.877C63.8627 63.877 64.1155 63.877 64.4132 63.877C64.4132 57.088 64.4132 50.3637 64.4132 43.5388C63.5953 43.5388 62.809 43.539 62.0228 43.5388C61.0403 43.5384 60.0575 43.5537 59.0756 43.5326C58.0925 43.5114 57.6277 43.0347 57.62 42.0417C57.6072 40.3807 57.6091 38.7194 57.6189 37.0583C57.6254 35.9633 58.1034 35.5021 59.2272 35.4973C60.9333 35.4901 62.6394 35.4954 64.4018 35.4954C64.4018 34.2818 64.4018 33.1072 64.4018 31.8629C63.3911 31.8629 62.4142 31.8659 61.4374 31.8622C60.1797 31.8574 59.7285 31.4211 59.728 30.1884C59.725 24.5031 59.725 18.8178 59.728 13.1325C59.7287 11.9256 60.1734 11.4833 61.3784 11.4758C62.3596 11.4696 63.3408 11.4745 64.39 11.4745C64.39 10.3608 64.39 9.2822 64.39 8.16353C56.4899 8.16353 48.5961 8.16353 40.6095 8.16353C40.6095 8.44988 40.6095 8.72093 40.6095 8.99216C40.6095 14.7476 40.6098 20.5032 40.6091 26.2586C40.6089 27.8289 40.2317 28.2066 38.6694 28.2072C37.2425 28.2077 35.8157 28.2082 34.3889 28.207C32.9334 28.2059 32.5328 27.7995 32.5325 26.3161C32.5313 20.5607 32.532 14.8051 32.532 9.04964C32.532 8.77208 32.532 8.49452 32.532 8.17109C29.1977 8.17109 25.9117 8.17109 22.5258 8.17109C22.5258 8.43511 22.5258 8.70511 22.5258 8.97529C22.5256 14.0054 22.5427 19.0358 22.52 24.0659C22.5015 28.1585 19.8922 31.4763 15.9521 32.3057C14.7563 32.5574 13.4899 32.496 12.2545 32.5321C11.0919 32.566 9.92738 32.5393 8.72415 32.5393C8.72415 33.5375 8.72415 34.463 8.72415 35.4551C8.95777 35.4689 9.18101 35.4921 9.40443 35.4935C10.2932 35.4994 11.183 35.4731 12.0705 35.5082C12.8438 35.5388 13.3815 36.1062 13.3743 36.8018C13.3672 37.4742 12.8633 38.0354 12.1151 38.0525C10.5261 38.0887 8.93474 38.0894 7.34585 38.0488C6.59333 38.0296 6.17181 37.535 6.11415 36.7791C6.09991 36.593 6.10747 36.4051 6.10747 36.2179C6.1073 26.6253 6.10712 17.0329 6.10747 7.44036C6.10747 5.9014 6.46853 5.53648 8.00468 5.5363C16.4253 5.53507 24.8459 5.53507 33.2666 5.53648C34.7435 5.53665 35.1472 5.93919 35.1476 7.4031C35.1486 13.1585 35.1481 18.9141 35.1481 24.6696C35.1481 24.9485 35.1481 25.2275 35.1481 25.5652C36.0875 25.5652 36.9833 25.5652 37.9937 25.5652C37.9937 25.3025 37.9937 25.0341 37.9937 24.7659C37.9937 18.9871 37.9931 13.2081 37.994 7.42929C37.9942 5.93831 38.3841 5.53701 39.8489 5.53683C48.2929 5.53507 56.7369 5.53507 65.181 5.53683C66.6595 5.53718 67.0341 5.92074 67.0343 7.41558C67.0347 17.0081 67.0347 26.6005 67.0343 36.1931C67.0343 37.7185 66.6683 38.0801 65.1209 38.0815C63.5123 38.0831 61.9038 38.0818 60.2444 38.0818C60.2444 39.0551 60.2444 39.9536 60.2444 40.9295C60.4942 40.9404 60.7405 40.9601 60.9869 40.9606C62.5072 40.9638 64.0277 40.952 65.5481 40.9666C66.5317 40.9761 67.0285 41.4588 67.0296 42.4359C67.0373 49.9462 67.0369 57.4563 67.0306 64.9665C67.0297 65.9929 66.5196 66.483 65.4479 66.4934C63.7639 66.5095 62.0797 66.4979 60.3956 66.4981C60.1435 66.4981 59.8914 66.4981 59.5937 66.4981C59.5937 67.4846 59.5937 68.406 59.5937 69.3665C63.024 69.3665 66.4256 69.3665 69.9125 69.3665C69.9125 69.0025 69.9125 68.6818 69.9125 68.3614C69.9125 50.3229 69.9125 32.2842 69.9129 14.2457C69.9129 13.965 69.9108 13.6841 69.9227 13.4037C69.9507 12.7509 70.2483 12.2745 70.898 12.1103C71.5506 11.9455 72.0325 12.2281 72.3608 12.7971C72.4072 12.8776 72.4542 12.958 72.5009 13.0383C72.5009 32.6922 72.5009 52.3461 72.5009 72.0001C67.626 72.0001 62.7651 72.0001 57.9042 72.0001ZM12.2853 8.15597C12.1545 9.68755 11.846 10.2265 11.0255 10.2244C9.61396 10.2209 9.65175 9.11275 9.59814 8.15281C9.27224 8.15281 9.01964 8.15281 8.74595 8.15281C8.74595 15.4113 8.74595 22.6425 8.74595 29.9263C10.3491 29.9263 11.8903 29.943 13.431 29.9187C14.1287 29.9078 14.8487 29.9103 15.5181 29.7438C18.2881 29.0551 19.9054 26.8679 19.913 23.8471C19.9253 18.841 19.917 13.8349 19.9147 8.82886C19.9146 8.60527 19.8896 8.38167 19.8762 8.15843C19.5551 8.15843 19.3058 8.15843 19.0617 8.15843C18.8224 9.7707 18.5023 10.2689 17.6751 10.2249C17.3921 10.2098 16.9792 10.1078 16.8667 9.90904C16.5716 9.38802 16.4093 8.79177 16.1602 8.13646C16.0799 8.14033 15.864 8.15087 15.6157 8.163C15.6157 9.26427 15.6343 10.2926 15.6102 11.32C15.5874 12.2932 15.0324 12.8833 14.2419 12.8354C13.4956 12.7903 13.0236 12.232 13.0088 11.3235C12.9919 10.2773 13.005 9.23052 13.005 8.15597C12.7309 8.15597 12.5305 8.15597 12.2853 8.15597ZM64.4118 29.2448C64.4118 24.1419 64.4118 19.131 64.4118 14.0946C63.7059 14.0946 63.0471 14.0946 62.3745 14.0946C62.3745 19.1739 62.3745 24.203 62.3745 29.2448C63.0761 29.2448 63.7198 29.2448 64.4118 29.2448Z" fill="#5F3819"/>
<path d="M56.1411 21.7429C56.1411 24.5032 56.1432 27.2637 56.1402 30.024C56.1386 31.4668 55.7447 31.8619 54.3184 31.8626C51.4417 31.864 48.5652 31.8654 45.6886 31.8619C44.4286 31.8603 43.9914 31.4314 43.9907 30.1855C43.9876 24.5011 43.9874 18.8167 43.9907 13.1323C43.9914 11.915 44.4242 11.4787 45.6323 11.4764C48.5558 11.471 51.4792 11.4725 54.4024 11.4754C55.7338 11.4768 56.1375 11.8872 56.1396 13.2514C56.1442 16.0817 56.1411 18.9123 56.1411 21.7429ZM53.4973 29.24C53.4973 28.6636 53.4973 28.1628 53.4973 27.672C53.3964 27.6555 53.3509 27.6416 53.3052 27.6414C52.276 27.6388 51.2468 27.6398 50.2176 27.6358C48.9295 27.6307 48.4949 27.1963 48.4937 25.9021C48.4909 23.1179 48.4921 20.3335 48.493 17.5493C48.4935 16.0947 48.8776 15.7054 50.3106 15.7036C51.3776 15.7024 52.4446 15.7034 53.5073 15.7034C53.5073 15.1077 53.5073 14.6057 53.5073 14.0926C51.1835 14.0926 48.9052 14.0926 46.5974 14.0926C46.5974 19.1584 46.5974 24.1762 46.5974 29.2402C48.9142 29.24 51.1928 29.24 53.4973 29.24ZM51.1109 18.321C51.1109 20.5822 51.1109 22.7626 51.1109 24.9875C51.93 24.9875 52.7073 24.9875 53.5077 24.9875C53.5077 22.7496 53.5077 20.5511 53.5077 18.321C52.7026 18.321 51.9427 18.321 51.1109 18.321Z" fill="#5F3819"/>
<path d="M20.2852 53.9761C20.2769 54.6689 19.6585 55.2695 18.9724 55.2514C18.2631 55.2326 17.714 54.6384 17.737 53.9148C17.7588 53.2243 18.3159 52.6783 18.999 52.6776C19.6938 52.6766 20.2936 53.2821 20.2852 53.9761Z" fill="#5F3819"/>
<path d="M15.586 25.2404C15.5739 25.9407 14.9618 26.5306 14.2727 26.5063C13.5819 26.4819 12.9881 25.8459 13.0229 25.1676C13.0579 24.4878 13.6269 23.95 14.3112 23.95C15.029 23.9501 15.5983 24.5263 15.586 25.2404Z" fill="#5F3819"/>
</svg>
