<svg width="73" height="73" viewBox="0 0 73 73" fill="none" xmlns="http://www.w3.org/2000/svg">
<path d="M39.1801 72.0168C37.8262 71.4889 37.3231 70.4928 37.3423 69.0548C37.3927 65.2851 37.3573 61.5142 37.3603 57.7439C37.3619 55.8908 38.2599 55 40.1251 54.9999C49.9351 54.9985 59.7451 55.015 69.555 54.9817C70.9969 54.9768 71.9903 55.4591 72.4995 56.8295C72.4995 61.2825 72.4995 65.7355 72.4995 70.1885C72.1718 71.0795 71.5626 71.6889 70.6718 72.0166C60.1747 72.0168 49.6775 72.0168 39.1801 72.0168ZM54.9368 69.901C54.9368 69.9031 54.9368 69.9052 54.9368 69.9073C59.8309 69.9073 64.7249 69.9007 69.619 69.9167C70.1607 69.9184 70.4093 69.8253 70.4047 69.1958C70.3767 65.4015 70.3799 61.607 70.4028 57.8127C70.4061 57.2508 70.2365 57.0973 69.6837 57.0982C59.8721 57.1149 50.0605 57.1176 40.2488 57.1031C39.6437 57.1022 39.4487 57.2558 39.4539 57.8884C39.4841 61.6123 39.4866 65.3367 39.4528 69.0606C39.4465 69.7531 39.6651 69.9177 40.3251 69.9142C45.1954 69.8896 50.0661 69.901 54.9368 69.901Z" fill="#5F3819"/>
<path d="M72.5 33.6269C71.9075 34.9854 70.8484 35.3829 69.41 35.3771C59.7381 35.338 50.0661 35.3569 40.3939 35.3565C40.1597 35.3565 39.9252 35.3606 39.6915 35.3486C38.3379 35.2794 37.3819 34.3744 37.373 33.0223C37.3458 28.9232 37.3492 24.8237 37.3701 20.7246C37.3768 19.4229 38.2305 18.5263 39.5153 18.3632C39.7926 18.328 40.0759 18.3321 40.3564 18.3321C50.0518 18.3306 59.7474 18.3454 69.4428 18.315C70.8836 18.3104 71.9434 18.7411 72.5 20.1274C72.5 24.627 72.5 29.1269 72.5 33.6269ZM39.5086 33.1848C39.8176 33.2013 40.0911 33.2285 40.3647 33.2286C50.1281 33.236 59.8916 33.2366 69.6549 33.2573C70.2408 33.2586 70.4072 33.0805 70.4035 32.499C70.3797 28.7052 70.3917 24.9112 70.3897 21.1173C70.3897 20.9341 70.3689 20.751 70.355 20.5202C70.0286 20.4966 69.7289 20.4559 69.4292 20.4557C59.6891 20.4483 49.9492 20.4492 40.209 20.4304C39.6176 20.4293 39.4545 20.6265 39.4579 21.2013C39.4794 24.9716 39.4685 28.7422 39.4706 32.5127C39.4706 32.7173 39.4931 32.9221 39.5086 33.1848Z" fill="#5F3819"/>
<path d="M11.0624 72.0168C10.603 71.6601 10.1886 71.2751 10.4393 70.6126C10.6835 69.9672 11.2306 69.9037 11.8254 69.904C18.7806 69.9075 25.7359 69.8963 32.691 69.9153C33.3451 69.9171 33.5719 69.7612 33.5654 69.065C33.5311 65.341 33.5342 61.6162 33.5638 57.8921C33.5688 57.2646 33.3832 57.1021 32.7725 57.103C22.9602 57.1179 13.1479 57.1151 3.33577 57.0984C2.78517 57.0975 2.61156 57.247 2.61491 57.8113C2.63815 61.6058 2.63674 65.4006 2.61596 69.1953C2.61297 69.7438 2.75911 69.9463 3.3282 69.9192C4.2394 69.8755 5.15431 69.9153 6.06762 69.9047C6.65942 69.8979 7.2065 69.9604 7.45547 70.6085C7.71079 71.2729 7.2926 71.6534 6.84448 72.017C5.34482 72.017 3.84516 72.017 2.34568 72.017C0.980724 71.5019 0.480838 70.5078 0.500559 69.0666C0.552326 65.2978 0.516758 61.5276 0.518519 57.7581C0.519399 55.8875 1.39997 55.0004 3.26217 55.0002C13.1403 54.9987 23.0185 54.9986 32.8965 55.0001C34.7601 55.0002 35.6556 55.8912 35.6572 57.7474C35.6602 61.5169 35.6248 65.2869 35.6752 69.0559C35.6944 70.4935 35.191 71.4893 33.8374 72.017C26.246 72.0168 18.6542 72.0168 11.0624 72.0168Z" fill="#5F3819"/>
<path d="M72.4991 15.2053C71.9902 16.5746 70.9985 17.0738 69.5563 17.0534C65.8128 17.0004 62.068 17.0381 58.3237 17.0344C56.555 17.0326 55.6364 16.1212 55.6343 14.3606C55.6297 10.4751 55.6297 6.58942 55.6343 2.7039C55.6364 0.93748 56.554 0.020993 58.3181 0.0192322C62.0624 0.0155345 65.807 0.052511 69.5506 0.000567888C70.9911 -0.019329 71.9846 0.481438 72.4992 1.84604C72.4991 6.29924 72.4991 10.7523 72.4991 15.2053ZM70.3902 8.56413C70.3902 6.64382 70.375 4.72316 70.4002 2.80321C70.4069 2.28571 70.2511 2.11474 69.7234 2.11738C65.9539 2.1364 62.1842 2.13604 58.4147 2.11756C57.892 2.11492 57.73 2.27884 57.7324 2.80004C57.7502 6.61724 57.7502 10.4346 57.7324 14.252C57.73 14.7712 57.887 14.9385 58.4119 14.9359C62.1814 14.9172 65.9511 14.9172 69.7206 14.9359C70.243 14.9385 70.4078 14.7778 70.4006 14.2548C70.3743 12.3583 70.3902 10.4612 70.3902 8.56413Z" fill="#5F3819"/>
<path d="M72.4998 51.9077C71.9434 53.2936 70.885 53.74 69.4433 53.7206C65.8148 53.6715 62.1852 53.7055 58.556 53.7039C56.501 53.703 55.6343 52.8462 55.6338 50.8172C55.6329 47.0233 55.6319 43.2293 55.6343 39.4354C55.6356 37.5626 56.5089 36.6827 58.3827 36.6799C62.0587 36.6745 65.7354 36.7201 69.4103 36.6574C70.8501 36.6327 71.9075 37.0502 72.4998 38.4081C72.4998 42.908 72.4998 47.4078 72.4998 51.9077ZM70.3909 45.1799C70.3909 43.2836 70.3774 41.387 70.4001 39.4908C70.4059 39.0001 70.3052 38.7753 69.7503 38.7783C65.9585 38.798 62.1667 38.7948 58.3748 38.7809C57.8864 38.7791 57.7316 38.9431 57.7337 39.4326C57.7503 43.2721 57.7497 47.1119 57.7342 50.9514C57.7323 51.4462 57.9066 51.6031 58.387 51.6015C62.1788 51.5892 65.9708 51.5886 69.7627 51.6019C70.2575 51.6036 70.405 51.4205 70.3997 50.9393C70.3784 49.0197 70.3909 47.0997 70.3909 45.1799Z" fill="#5F3819"/>
<path d="M36.4326 17.0356C31.5143 17.0356 26.5963 17.0372 21.6781 17.0349C19.8192 17.034 18.9385 16.1443 18.9374 14.2692C18.9351 10.4274 18.9346 6.58568 18.9378 2.74383C18.9394 0.924415 19.8414 0.0191969 21.6538 0.0190208C31.5605 0.01726 41.467 0.01726 51.3737 0.0190208C53.1533 0.0193729 54.0742 0.925823 54.0763 2.68432C54.0809 6.573 54.0803 10.4615 54.0765 14.3502C54.0747 16.126 53.1698 17.0331 51.398 17.0343C46.4093 17.0377 41.421 17.0356 36.4326 17.0356ZM36.5098 14.926C41.4041 14.926 46.2984 14.9233 51.1927 14.9302C51.6522 14.9309 51.9866 14.9397 51.9818 14.2886C51.9542 10.4474 51.9612 6.60593 51.9767 2.76443C51.9787 2.27423 51.8214 2.1184 51.3305 2.11911C41.4717 2.13284 31.6129 2.13548 21.7541 2.12597C21.2171 2.12544 21.0285 2.2656 21.0324 2.83891C21.0583 6.6098 21.0597 10.3812 21.0319 14.1521C21.0273 14.7777 21.2129 14.9418 21.8269 14.939C26.7213 14.9156 31.6156 14.926 36.5098 14.926Z" fill="#5F3819"/>
<path d="M18.0703 35.3565C13.1764 35.3565 8.28233 35.3579 3.38841 35.356C1.35753 35.3553 0.519218 34.5226 0.51869 32.5132C0.51781 28.6955 0.516401 24.8777 0.519395 21.06C0.520803 19.2543 1.43148 18.3338 3.24315 18.3329C13.1483 18.3285 23.0532 18.328 32.9583 18.3334C34.7221 18.3345 35.6547 19.2712 35.657 21.0204C35.6621 24.9084 35.6621 28.7964 35.657 32.6843C35.6547 34.4499 34.749 35.3519 32.9629 35.3544C27.9987 35.3607 23.0345 35.3565 18.0703 35.3565ZM2.65258 33.1816C2.938 33.1999 3.1662 33.2274 3.3944 33.2275C13.2046 33.2353 23.0148 33.2377 32.825 33.2543C33.3488 33.2552 33.5659 33.136 33.5621 32.5521C33.5371 28.7583 33.5404 24.9644 33.5592 21.1706C33.5619 20.6309 33.4136 20.4303 32.8488 20.4314C23.0386 20.4495 13.2284 20.4502 3.41817 20.4592C3.1692 20.4594 2.92022 20.5096 2.65241 20.5385C2.65258 24.758 2.65258 28.9224 2.65258 33.1816Z" fill="#5F3819"/>
<path d="M51.9701 51.5292C51.9701 49.3381 51.9701 47.2547 51.9701 45.1712C51.9701 43.2965 51.9507 41.4213 51.9817 39.5471C51.9912 38.9775 51.8403 38.7542 51.2401 38.7766C50.1405 38.8176 49.038 38.7954 47.937 38.7836C47.3179 38.7769 46.8314 38.5501 46.708 37.8717C46.6025 37.292 47.0086 36.727 47.6382 36.7126C49.1359 36.6784 50.6386 36.6524 52.133 36.7358C53.1993 36.7953 54.0531 37.7752 54.0605 38.9044C54.088 43.0989 54.0895 47.294 54.0573 51.4884C54.0487 52.6094 53.2127 53.455 52.0984 53.6421C51.8004 53.6921 51.4927 53.7017 51.1894 53.7018C41.3959 53.7048 31.6024 53.705 21.8089 53.7036C19.8085 53.7032 18.939 52.8318 18.9385 50.8348C18.9375 47.0383 18.9368 43.2419 18.9389 39.4455C18.9399 37.5627 19.8064 36.6812 21.6785 36.68C28.5666 36.6758 35.455 36.677 42.3432 36.6828C42.643 36.683 43.0369 36.6427 43.2208 36.8071C43.5 37.0572 43.7895 37.4734 43.7823 37.8131C43.7759 38.1131 43.422 38.4871 43.1244 38.6743C42.8781 38.8292 42.4904 38.785 42.1652 38.7854C35.4177 38.7935 28.6702 38.8053 21.9227 38.7836C21.2186 38.7813 21.0231 38.9643 21.031 39.6839C21.0714 43.3861 21.0617 47.0892 21.0377 50.7918C21.0338 51.3898 21.1788 51.6083 21.8163 51.6069C31.4925 51.5855 41.1687 51.5882 50.8449 51.5824C51.1922 51.5819 51.5392 51.5503 51.9701 51.5292Z" fill="#5F3819"/>
<path d="M0.518402 45.1641C0.518402 43.1971 0.512239 41.2301 0.520163 39.2632C0.526854 37.6172 1.4333 36.6889 3.08351 36.6833C6.99297 36.6695 10.9026 36.6695 14.8123 36.6833C16.4582 36.6891 17.3784 37.6216 17.3818 39.2605C17.3897 43.2179 17.3907 47.1753 17.3811 51.1326C17.3772 52.7154 16.438 53.6879 14.8498 53.6967C10.9169 53.7181 6.98382 53.718 3.05094 53.6968C1.45954 53.688 0.528615 52.7185 0.520691 51.1352C0.510831 49.1449 0.518402 47.1545 0.518402 45.1641ZM2.62711 45.2306C2.62711 47.127 2.64384 49.0237 2.61637 50.9197C2.60863 51.452 2.79685 51.6047 3.30625 51.6027C7.07467 51.5881 10.8433 51.5871 14.6117 51.6034C15.1431 51.6057 15.287 51.411 15.2847 50.9007C15.2676 47.0846 15.2658 43.2682 15.2861 39.4523C15.2889 38.9131 15.0987 38.7777 14.5925 38.7798C10.8241 38.7959 7.05548 38.7971 3.28706 38.7788C2.75548 38.7761 2.60986 38.9573 2.61673 39.4716C2.64261 41.3909 2.62711 43.3109 2.62711 45.2306Z" fill="#5F3819"/>
<path d="M8.97908 17.0355C7.03518 17.0356 5.09128 17.04 3.1472 17.0342C1.46019 17.0291 0.529796 16.1088 0.519935 14.4408C0.513773 13.41 0.515005 12.3793 0.519935 11.3485C0.524161 10.4491 0.884417 9.97438 1.55668 9.9647C2.25325 9.95466 2.62319 10.4415 2.62671 11.3855C2.63041 12.346 2.65471 13.3075 2.61703 14.2665C2.5959 14.8063 2.80208 14.9375 3.30954 14.9352C7.08026 14.918 10.8511 14.9197 14.6219 14.9336C15.0911 14.9354 15.2874 14.8174 15.2852 14.3061C15.2679 10.4642 15.2665 6.6222 15.2864 2.78035C15.2892 2.23363 15.0814 2.11654 14.583 2.11883C10.8357 2.13503 7.08818 2.13749 3.34106 2.11671C2.79469 2.11372 2.59062 2.25652 2.61579 2.82772C2.65893 3.80971 2.63358 4.79504 2.62583 5.77897C2.61914 6.61428 2.24057 7.08705 1.5912 7.09762C0.933367 7.10836 0.528915 6.63664 0.521696 5.81471C0.511836 4.69027 0.504616 3.56549 0.523457 2.4414C0.547051 1.00055 1.52024 0.0278983 2.97359 0.0231441C6.95507 0.0101144 10.9367 0.00993828 14.9182 0.0231441C16.4059 0.0280743 17.3745 1.0032 17.3796 2.50444C17.3935 6.51039 17.3923 10.5163 17.3807 14.5221C17.3763 16.0699 16.418 17.023 14.8812 17.0323C12.9139 17.0443 10.9464 17.0353 8.97908 17.0355Z" fill="#5F3819"/>
</svg>
