<svg width="16" height="16" viewBox="0 0 16 16" fill="none" xmlns="http://www.w3.org/2000/svg">
<path d="M5.67018 5.31567C6.72826 5.31567 7.76777 5.31567 8.8329 5.31567C8.8329 5.79072 8.8329 6.26106 8.8329 6.75153C8.87656 6.72879 8.89826 6.72513 8.90584 6.71284C9.61149 5.57947 10.6669 5.08664 11.9692 5.05658C12.6984 5.03984 13.4108 5.13135 14.0778 5.44979C14.9419 5.86235 15.4263 6.57976 15.6946 7.46894C15.9105 8.18426 15.985 8.92127 15.99 9.66169C16.0038 11.714 15.9986 13.7664 16.0004 15.8187C16.0004 15.8501 15.9963 15.8815 15.9929 15.9262C14.8943 15.9262 13.804 15.9262 12.6816 15.9262C12.6816 15.8569 12.6816 15.7824 12.6816 15.7076C12.6809 13.9669 12.6864 12.2265 12.6748 10.4858C12.6722 10.0918 12.6411 9.69228 12.5697 9.30534C12.3684 8.21302 11.6568 7.8449 10.6418 7.9636C9.71528 8.0721 9.20467 8.61277 9.0601 9.6128C9.00728 9.97778 8.98375 10.3496 8.98192 10.7185C8.97382 12.381 8.97826 14.0438 8.97826 15.7066C8.97826 15.784 8.97826 15.8614 8.97826 15.9529C7.87104 15.9529 6.7761 15.9529 5.66992 15.9529C5.67018 12.4095 5.67018 8.87264 5.67018 5.31567Z" fill="white"/>
<path d="M0.273438 15.9553C0.273438 12.4041 0.273438 8.86747 0.273438 5.3186C1.37256 5.3186 2.46279 5.3186 3.56844 5.3186C3.56844 8.86303 3.56844 12.403 3.56844 15.9553C2.47403 15.9553 1.38406 15.9553 0.273438 15.9553Z" fill="white"/>
<path d="M3.83803 1.91046C3.84404 2.96854 2.98389 3.84569 1.93444 3.8517C0.879244 3.85772 0.000261506 2.97926 5.96388e-08 1.91752C-0.000261387 0.873046 0.859112 0.00948876 1.90777 7.66963e-05C2.96506 -0.00933537 3.83202 0.848731 3.83803 1.91046Z" fill="white"/>
</svg>
