<svg width="78" height="56" viewBox="0 0 78 56" fill="none" xmlns="http://www.w3.org/2000/svg">
<path d="M-0.00168991 23.7262C1.21297 20.1195 2.43238 16.5142 3.64134 12.9056C4.85981 9.26824 6.06649 5.62711 7.28172 1.98863C7.77849 0.501362 8.44965 0.0108604 10.0184 0.00497055C12.1166 -0.0030098 14.2148 0.000980377 16.3132 0.0034523C18.3801 0.00572968 19.1643 0.780804 19.165 2.82981C19.1671 8.87291 19.1658 14.916 19.1658 20.9591C19.1658 21.2557 19.1658 21.5522 19.1658 21.9225C19.5296 21.9225 19.802 21.9225 20.0744 21.9225C23.7148 21.9225 27.3552 21.9209 30.9954 21.9232C32.961 21.9244 33.8113 22.7758 33.8115 24.745C33.8128 34.1509 33.813 43.5571 33.8113 52.963C33.8109 54.8919 32.9617 55.7422 31.0411 55.7424C21.7127 55.7436 12.3843 55.7232 3.05624 55.7641C1.64705 55.7702 0.604122 55.388 -0.00168991 54.0739C-0.00168991 43.9579 -0.00168991 33.8421 -0.00168991 23.7262Z" fill="#5F3819"/>
<path d="M63.0587 21.9223C63.4664 21.9223 63.7418 21.9223 64.0175 21.9223C67.708 21.9223 71.3985 21.9162 75.089 21.9253C76.7 21.9293 77.6677 22.8286 77.669 24.3567C77.6781 34.0146 77.6779 43.6726 77.669 53.3304C77.6677 54.805 76.7192 55.7371 75.2306 55.7385C65.5999 55.7461 55.9691 55.7459 46.3384 55.7388C44.8126 55.7377 43.8684 54.811 43.8667 53.277C43.8555 43.6697 43.8566 34.0624 43.8735 24.4551C43.8745 23.962 44.0096 23.4527 44.1665 22.9787C46.4852 15.9835 48.8169 8.99262 51.149 2.00176C51.6537 0.488659 52.3302 0.00822449 53.9552 0.00404358C56.0785 -0.00127411 58.2018 -0.00203323 60.325 0.00423431C62.2196 0.00974274 63.0549 0.83934 63.0566 2.73599C63.0621 8.80379 63.0587 14.8716 63.0587 20.9394C63.0587 21.2367 63.0587 21.534 63.0587 21.9223Z" fill="#5F3819"/>
</svg>
