<svg width="16" height="17" viewBox="0 0 16 17" fill="none" xmlns="http://www.w3.org/2000/svg">
<g clip-path="url(#clip0_12_421)">
<path d="M6.23937 9.9074C6.11029 9.9074 6.00332 9.9074 5.89635 9.9074C5.40297 9.90724 4.90959 9.91095 4.41638 9.90563C4.12177 9.9024 4.02383 9.8164 4.02109 9.53486C4.01383 8.77689 4.01367 8.01875 4.02141 7.26077C4.02432 6.98003 4.1279 6.89356 4.4188 6.8921C4.95429 6.88936 5.48978 6.8913 6.02527 6.8913C6.08996 6.8913 6.1545 6.8913 6.23953 6.8913C6.23953 6.80288 6.2384 6.73254 6.23969 6.66219C6.25227 5.97698 6.22727 5.28838 6.28551 4.60703C6.43168 2.89134 7.74952 1.64982 9.4728 1.5848C10.1938 1.55753 10.9165 1.57367 11.6385 1.57544C11.8779 1.57609 11.9808 1.67902 11.9821 1.91845C11.986 2.63432 11.9862 3.35035 11.9821 4.06622C11.9807 4.31001 11.8808 4.40697 11.6202 4.41343C11.1332 4.42536 10.6457 4.42569 10.1585 4.43295C9.59267 4.44134 9.3697 4.65479 9.35954 5.22077C9.35002 5.75514 9.35744 6.28982 9.35744 6.8437C9.43278 6.84725 9.49603 6.8529 9.55928 6.8529C10.179 6.85354 10.7987 6.85274 11.4184 6.85354C11.8224 6.85403 11.9107 6.94099 11.911 7.33708C11.9116 8.04698 11.9121 8.75704 11.9107 9.46694C11.91 9.79946 11.8277 9.88352 11.4946 9.88497C10.8568 9.88756 10.219 9.88594 9.58138 9.8861C9.51587 9.8861 9.45053 9.8861 9.35824 9.8861C9.35824 9.97484 9.35824 10.0508 9.35824 10.1268C9.35824 12.01 9.35841 13.8932 9.35824 15.7763C9.35824 16.2831 9.29903 16.3412 8.78565 16.3413C8.09382 16.3415 7.40183 16.342 6.71 16.3412C6.32778 16.3407 6.23969 16.2539 6.23969 15.8765C6.23904 13.969 6.23937 12.0618 6.23937 10.1546C6.23937 10.0831 6.23937 10.0116 6.23937 9.9074Z" fill="white"/>
</g>
<defs>
<clipPath id="clip0_12_421">
<rect width="16" height="16" fill="white" transform="translate(0 0.955322)"/>
</clipPath>
</defs>
</svg>
